<svg width="1279" height="32" viewBox="0 0 1279 32" fill="none" xmlns="http://www.w3.org/2000/svg">
<path d="M127.9 5.01096C68.2134 -1.67032 25.58 -1.67032 2.47955e-05 5.01096V31.068H1279V5.01096C1253.42 11.6923 1210.79 11.6923 1151.1 5.01096C1091.41 -1.67032 1048.78 -1.67032 1023.2 5.01096C997.62 11.6923 954.987 11.6923 895.3 5.01096C835.613 -1.67032 792.98 -1.67032 767.4 5.01096C741.82 11.6923 699.187 11.6923 639.5 5.01096C579.813 -1.67032 537.18 -1.67032 511.6 5.01096C486.02 11.6923 443.387 11.6923 383.7 5.01096C324.013 -1.67032 281.38 -1.67032 255.8 5.01096C230.22 11.6923 187.587 11.6923 127.9 5.01096Z" fill="#F8DB67"/>
</svg>
