<svg width="109" height="109" viewBox="0 0 109 109" fill="none" xmlns="http://www.w3.org/2000/svg">
<path d="M45.9505 14.2177C50.393 8.86407 58.607 8.86407 63.0495 14.2177C66.4457 18.3104 71.643 20.4632 76.9385 19.9707C83.8654 19.3265 89.6735 25.1346 89.0293 32.0615C88.5368 37.357 90.6896 42.5543 94.7823 45.9505C100.136 50.393 100.136 58.607 94.7823 63.0495C90.6896 66.4457 88.5368 71.643 89.0293 76.9385C89.6735 83.8654 83.8654 89.6735 76.9385 89.0293C71.643 88.5368 66.4457 90.6896 63.0495 94.7823C58.607 100.136 50.393 100.136 45.9505 94.7823C42.5543 90.6896 37.357 88.5368 32.0615 89.0293C25.1346 89.6735 19.3265 83.8654 19.9707 76.9385C20.4632 71.643 18.3104 66.4457 14.2177 63.0495C8.86407 58.607 8.86407 50.393 14.2177 45.9505C18.3104 42.5543 20.4632 37.357 19.9707 32.0615C19.3265 25.1346 25.1346 19.3265 32.0615 19.9707C37.357 20.4632 42.5543 18.3104 45.9505 14.2177Z" fill="#FFFDF5" stroke="#A8983D" stroke-width="5"/>
<path d="M41.576 50.8745L36.7565 37.9578H38.3676L41.201 45.4578C41.3028 45.7171 41.3861 45.9671 41.451 46.2078C41.5158 46.4393 41.5852 46.7171 41.6593 47.0412C41.7334 46.7171 41.8028 46.4393 41.8676 46.2078C41.9417 45.9671 42.025 45.7171 42.1176 45.4578L44.9787 37.5412L47.826 45.4578C47.9093 45.6893 47.988 45.9254 48.0621 46.1662C48.1454 46.3976 48.2195 46.6893 48.2843 47.0412C48.3584 46.6893 48.4324 46.3976 48.5065 46.1662C48.5806 45.9254 48.6639 45.6893 48.7565 45.4578L51.5898 37.9578H53.0898L48.2843 50.8745L45.3954 42.7634C45.3121 42.5226 45.2334 42.2912 45.1593 42.0689C45.0852 41.8375 45.0111 41.5458 44.9371 41.1939C44.863 41.5458 44.7889 41.8375 44.7148 42.0689C44.6408 42.2912 44.5621 42.5226 44.4787 42.7634L41.576 50.8745ZM57.3056 50.6245C56.4352 50.6245 55.6528 50.43 54.9583 50.0412C54.2731 49.6523 53.7315 49.1245 53.3333 48.4578C52.9444 47.7819 52.75 47.0319 52.75 46.2078C52.75 45.4208 52.9398 44.7078 53.3194 44.0689C53.6991 43.4208 54.2083 42.9069 54.8472 42.5273C55.4954 42.1476 56.2083 41.9578 56.9861 41.9578C57.7546 41.9578 58.4583 42.143 59.0972 42.5134C59.7361 42.8745 60.2454 43.3652 60.625 43.9856C61.0046 44.606 61.1944 45.3097 61.1944 46.0967V46.7078H55.75C55.5093 46.7078 55.2639 46.6986 55.0139 46.68C54.7639 46.6615 54.5185 46.6338 54.2778 46.5967C54.3796 47.3375 54.713 47.9578 55.2778 48.4578C55.8519 48.9578 56.5324 49.2078 57.3194 49.2078C57.8472 49.2078 58.338 49.0875 58.7917 48.8467C59.2454 48.606 59.6111 48.2865 59.8889 47.8884L60.3056 49.5967C59.9074 49.9208 59.4491 50.1754 58.9306 50.3606C58.4213 50.5365 57.8796 50.6245 57.3056 50.6245ZM54.2361 45.5828C54.7361 45.4995 55.2407 45.4578 55.75 45.4578H58.5139C58.7176 45.4578 58.9167 45.4671 59.1111 45.4856C59.3148 45.4949 59.5185 45.5088 59.7222 45.5273C59.5926 44.8791 59.2685 44.3467 58.75 43.93C58.2315 43.5041 57.6435 43.2912 56.9861 43.2912C56.3102 43.2912 55.7176 43.518 55.2083 43.9717C54.6991 44.4162 54.375 44.9532 54.2361 45.5828ZM67.5161 50.5689C66.942 50.5689 66.4049 50.4625 65.9049 50.2495C65.4049 50.0273 64.9651 49.731 64.5855 49.3606V50.4578H63.1966V37.1245H64.6966V43.1106C65.067 42.768 65.4929 42.4995 65.9744 42.305C66.4559 42.1106 66.9698 42.0134 67.5161 42.0134C68.2846 42.0134 68.979 42.2078 69.5994 42.5967C70.229 42.9763 70.729 43.4902 71.0994 44.1384C71.479 44.7865 71.6688 45.5041 71.6688 46.2912C71.6688 47.0782 71.479 47.7958 71.0994 48.4439C70.729 49.0921 70.229 49.6106 69.5994 49.9995C68.979 50.3791 68.2846 50.5689 67.5161 50.5689ZM67.3216 49.2078C67.8494 49.2078 68.3262 49.0782 68.7522 48.8189C69.1874 48.5504 69.5299 48.1986 69.7799 47.7634C70.0392 47.3189 70.1688 46.8282 70.1688 46.2912C70.1688 45.7541 70.0392 45.268 69.7799 44.8328C69.5299 44.3884 69.1874 44.0365 68.7522 43.7773C68.3262 43.5088 67.8494 43.3745 67.3216 43.3745C66.7938 43.3745 66.3124 43.5088 65.8772 43.7773C65.4512 44.0365 65.1087 44.3884 64.8494 44.8328C64.5994 45.268 64.4744 45.7541 64.4744 46.2912C64.4744 46.8282 64.5994 47.3189 64.8494 47.7634C65.1087 48.1986 65.4512 48.5504 65.8772 48.8189C66.3124 49.0782 66.7938 49.2078 67.3216 49.2078ZM37.1443 66.7078C36.2462 66.7078 35.3989 66.5412 34.6026 66.2078C33.8156 65.8652 33.1212 65.3976 32.5193 64.805C31.9267 64.2125 31.4591 63.5226 31.1165 62.7356C30.7832 61.9486 30.6165 61.106 30.6165 60.2078C30.6165 59.3097 30.7832 58.4671 31.1165 57.68C31.4591 56.893 31.9267 56.2032 32.5193 55.6106C33.1212 55.018 33.8156 54.555 34.6026 54.2217C35.3989 53.8791 36.2462 53.7078 37.1443 53.7078C38.0332 53.7078 38.8665 53.8745 39.6443 54.2078C40.4221 54.5319 41.1073 54.981 41.6999 55.555L41.2415 57.4717C40.8156 56.7865 40.2415 56.2402 39.5193 55.8328C38.8064 55.4162 38.0147 55.2078 37.1443 55.2078C36.2276 55.2078 35.3989 55.4347 34.6582 55.8884C33.9267 56.3328 33.3434 56.9347 32.9082 57.6939C32.473 58.4439 32.2554 59.2819 32.2554 60.2078C32.2554 61.1245 32.473 61.9625 32.9082 62.7217C33.3434 63.481 33.9267 64.0875 34.6582 64.5412C35.3989 64.9856 36.2276 65.2078 37.1443 65.2078C38.0239 65.2078 38.8202 64.9995 39.5332 64.5828C40.2462 64.1662 40.8156 63.6199 41.2415 62.9439L41.6999 64.8606C41.1073 65.4254 40.4221 65.8745 39.6443 66.2078C38.8665 66.5412 38.0332 66.7078 37.1443 66.7078ZM47.4221 66.6245C46.6165 66.6245 45.8804 66.43 45.2138 66.0412C44.5471 65.6523 44.0147 65.1291 43.6165 64.4717C43.2276 63.8143 43.0332 63.0875 43.0332 62.2912C43.0332 61.4856 43.2276 60.7588 43.6165 60.1106C44.0147 59.4532 44.5471 58.93 45.2138 58.5412C45.8804 58.1523 46.6165 57.9578 47.4221 57.9578C48.2369 57.9578 48.973 58.1523 49.6304 58.5412C50.2971 58.93 50.8249 59.4532 51.2138 60.1106C51.6119 60.7588 51.811 61.4856 51.811 62.2912C51.811 63.0875 51.6119 63.8143 51.2138 64.4717C50.8249 65.1291 50.2971 65.6523 49.6304 66.0412C48.973 66.43 48.2369 66.6245 47.4221 66.6245ZM47.4221 65.2078C47.9591 65.2078 48.4452 65.0782 48.8804 64.8189C49.3156 64.5504 49.6628 64.1986 49.9221 63.7634C50.1814 63.3189 50.311 62.8282 50.311 62.2912C50.311 61.7541 50.1814 61.268 49.9221 60.8328C49.6628 60.3884 49.3156 60.0365 48.8804 59.7773C48.4452 59.5088 47.9591 59.3745 47.4221 59.3745C46.8851 59.3745 46.3989 59.5088 45.9638 59.7773C45.5286 60.0365 45.1814 60.3884 44.9221 60.8328C44.6628 61.268 44.5332 61.7541 44.5332 62.2912C44.5332 62.8282 44.6628 63.3189 44.9221 63.7634C45.1814 64.1986 45.5286 64.5504 45.9638 64.8189C46.3989 65.0782 46.8851 65.2078 47.4221 65.2078ZM57.4594 66.5689C56.7002 66.5689 56.0057 66.3791 55.3761 65.9995C54.7465 65.6106 54.2418 65.0921 53.8622 64.4439C53.4918 63.7958 53.3066 63.0782 53.3066 62.2912C53.3066 61.5041 53.4918 60.7865 53.8622 60.1384C54.2418 59.4902 54.7465 58.9763 55.3761 58.5967C56.0057 58.2078 56.7002 58.0134 57.4594 58.0134C58.0057 58.0134 58.5196 58.1106 59.0011 58.305C59.4826 58.4995 59.9085 58.768 60.2789 59.1106V53.1245H61.7789V66.4578H60.39V65.3606C60.0196 65.731 59.5798 66.0273 59.0705 66.2495C58.5705 66.4625 58.0335 66.5689 57.4594 66.5689ZM57.6539 65.2078C58.1816 65.2078 58.6585 65.0782 59.0844 64.8189C59.5196 64.5504 59.8622 64.1986 60.1122 63.7634C60.3715 63.3189 60.5011 62.8282 60.5011 62.2912C60.5011 61.7541 60.3715 61.268 60.1122 60.8328C59.8622 60.3884 59.5196 60.0365 59.0844 59.7773C58.6585 59.5088 58.1816 59.3745 57.6539 59.3745C57.1261 59.3745 56.6446 59.5088 56.2094 59.7773C55.7835 60.0365 55.4409 60.3884 55.1816 60.8328C54.9316 61.268 54.8066 61.7541 54.8066 62.2912C54.8066 62.8282 54.9316 63.3189 55.1816 63.7634C55.4409 64.1986 55.7835 64.5504 56.2094 64.8189C56.6446 65.0782 57.1261 65.2078 57.6539 65.2078ZM68.4091 66.6245C67.5387 66.6245 66.7563 66.43 66.0618 66.0412C65.3767 65.6523 64.835 65.1245 64.4368 64.4578C64.048 63.7819 63.8535 63.0319 63.8535 62.2078C63.8535 61.4208 64.0433 60.7078 64.423 60.0689C64.8026 59.4208 65.3118 58.9069 65.9507 58.5273C66.5989 58.1476 67.3118 57.9578 68.0896 57.9578C68.8581 57.9578 69.5618 58.143 70.2007 58.5134C70.8396 58.8745 71.3489 59.3652 71.7285 59.9856C72.1081 60.606 72.298 61.3097 72.298 62.0967V62.7078H66.8535C66.6128 62.7078 66.3674 62.6986 66.1174 62.68C65.8674 62.6615 65.622 62.6338 65.3813 62.5967C65.4831 63.3375 65.8165 63.9578 66.3813 64.4578C66.9554 64.9578 67.6359 65.2078 68.423 65.2078C68.9507 65.2078 69.4415 65.0875 69.8952 64.8467C70.3489 64.606 70.7146 64.2865 70.9924 63.8884L71.4091 65.5967C71.0109 65.9208 70.5526 66.1754 70.0341 66.3606C69.5248 66.5365 68.9831 66.6245 68.4091 66.6245ZM65.3396 61.5828C65.8396 61.4995 66.3443 61.4578 66.8535 61.4578H69.6174C69.8211 61.4578 70.0202 61.4671 70.2146 61.4856C70.4183 61.4949 70.622 61.5088 70.8257 61.5273C70.6961 60.8791 70.372 60.3467 69.8535 59.93C69.335 59.5041 68.747 59.2912 68.0896 59.2912C67.4137 59.2912 66.8211 59.518 66.3118 59.9717C65.8026 60.4162 65.4785 60.9532 65.3396 61.5828ZM74.3001 66.4578V58.1245H75.689V59.6523C75.9853 59.1615 76.3788 58.7726 76.8696 58.4856C77.3603 58.1893 77.9436 58.0412 78.6196 58.0412L78.9946 59.5412C78.8186 59.4856 78.6149 59.4578 78.3835 59.4578C77.6057 59.4578 76.9807 59.7078 76.5085 60.2078C76.0362 60.6986 75.8001 61.4023 75.8001 62.3189V66.4578H74.3001Z" fill="black" fill-opacity="0.61"/>
</svg>
